<svg width="135.000000" height="38.000000" viewBox="0 0 135 38" fill="none" xmlns="http://www.w3.org/2000/svg" xmlns:xlink="http://www.w3.org/1999/xlink">
	<desc>
			Created with Pixso.
	</desc>
	<defs/>
	<path id="payapi" d="M50.5439 33.9336L50.5439 26.0938L50.608 26.0938C51.1627 26.9043 51.8719 27.5176 52.736 27.9336Q52.9631 28.043 53.1976 28.1338L53.1976 28.1338Q54.3011 28.5576 55.568 28.5576C56.7841 28.5576 57.8453 28.3232 58.752 27.8535Q59.608 27.4111 60.2866 26.7773L60.2866 26.7773Q60.686 26.4043 61.024 25.9658C61.632 25.1768 62.0853 24.2695 62.384 23.2461Q62.3925 23.2168 62.4008 23.1875Q62.832 21.6787 62.832 20.0459Q62.832 18.2861 62.384 16.6699C62.0853 15.5928 61.6267 14.6484 61.0081 13.8379Q60.7296 13.4736 60.408 13.1514Q59.6576 12.4014 58.672 11.8857Q57.264 11.1504 55.312 11.1504Q53.9242 11.1504 52.7454 11.6465L52.7452 11.6465Q52.6194 11.6992 52.496 11.7578Q52.2788 11.8613 52.0746 11.9854Q51.0748 12.5938 50.384 13.71L50.3199 13.71L50.3199 11.5977L46 11.5977L46 33.9336L50.5439 33.9336ZM52.496 24.7178C53.0081 25.0166 53.6267 25.166 54.3521 25.166C55.0986 25.166 55.7227 25.0166 56.224 24.7178C56.7253 24.4189 57.1306 24.0303 57.4399 23.5498C57.7494 23.0703 57.968 22.5098 58.0959 21.8701C58.224 21.2295 58.288 20.5791 58.288 19.918Q58.288 19.207 58.1812 18.5127Q58.1389 18.2383 58.08 17.9658C57.9413 17.3262 57.712 16.7549 57.392 16.2539C57.072 15.7529 56.6614 15.3477 56.16 15.0381C55.6587 14.7285 55.0453 14.5742 54.3199 14.5742Q53.2 14.5742 52.448 15.0381C51.9467 15.3477 51.5414 15.7471 51.2321 16.2383Q50.7679 16.9736 50.576 17.9336C50.448 18.5742 50.384 19.2354 50.384 19.918Q50.384 20.6289 50.4908 21.3232Q50.5331 21.5977 50.592 21.8701C50.7307 22.5098 50.9547 23.0703 51.264 23.5498C51.5734 24.0303 51.984 24.4189 52.496 24.7178ZM70.2339 28.5576Q70.9712 28.5576 71.6937 28.4551Q72.4764 28.3428 73.2418 28.1104C74.2231 27.8115 75.0765 27.2891 75.8019 26.542C75.8232 26.8193 75.8605 27.0908 75.9138 27.3584C75.9672 27.625 76.0365 27.8857 76.1218 28.1416L80.7299 28.1416C80.5165 27.8008 80.3672 27.2891 80.2819 26.6055C80.1965 25.9229 80.1538 25.209 80.1538 24.4619L80.1538 15.8535C80.1538 14.8516 79.9298 14.0459 79.4818 13.4375Q79.2485 13.1211 78.9689 12.8525Q78.4432 12.3486 77.7539 12.0137C77.0498 11.6729 76.2712 11.4434 75.4178 11.3262Q74.1378 11.1504 72.8899 11.1504Q72.4818 11.1504 72.0752 11.1738Q71.1106 11.2305 70.1538 11.4219C69.2472 11.6035 68.4312 11.9072 67.7058 12.334C66.9805 12.7607 66.3832 13.3262 65.9138 14.0303C65.4445 14.7344 65.1779 15.6191 65.1139 16.6855L69.6578 16.6855C69.7432 15.79 70.0419 15.1504 70.5538 14.7656Q71.3219 14.1904 72.6659 14.1904Q73.2738 14.1904 73.8019 14.2695Q74.3298 14.3496 74.7299 14.5898C74.9965 14.75 75.2098 14.9736 75.3699 15.2617C75.5298 15.5498 75.6099 15.9395 75.6099 16.4297C75.6113 16.4609 75.6119 16.4922 75.6119 16.5225C75.6119 16.9463 75.4727 17.2734 75.1938 17.502C74.8951 17.7471 74.4899 17.9336 73.9779 18.0615C73.4658 18.1904 72.8792 18.2861 72.2179 18.3496C71.5565 18.4141 70.8845 18.499 70.2019 18.6055C69.5192 18.7129 68.8418 18.8564 68.1698 19.0381Q67.1619 19.3096 66.3778 19.8535C65.8552 20.2168 65.4285 20.7021 65.0979 21.3096Q64.6018 22.2217 64.6018 23.6299C64.6018 24.4834 64.7458 25.2197 65.0338 25.8379C65.3219 26.457 65.7218 26.9688 66.2339 27.374C66.7458 27.7793 67.3431 28.0781 68.0259 28.2695C68.7085 28.4619 69.4445 28.5576 70.2339 28.5576ZM70.8739 25.4541C71.2152 25.5176 71.5671 25.5498 71.9298 25.5498Q73.2738 25.5498 74.0099 25.1016C74.5005 24.8037 74.8632 24.4463 75.0979 24.0303C75.3325 23.6143 75.4766 23.1924 75.5298 22.7656Q75.6099 22.126 75.6099 21.7422L75.6099 20.0459C75.4178 20.2168 75.1779 20.3496 74.8899 20.4463C74.6018 20.542 74.2925 20.6221 73.9618 20.6855C73.6312 20.75 73.2845 20.8037 72.9219 20.8457C72.5592 20.8887 72.1965 20.9424 71.8339 21.0059C71.4926 21.0703 71.1565 21.1553 70.8258 21.2617C70.4951 21.3682 70.2072 21.5127 69.9618 21.6943C69.7166 21.875 69.5192 22.1045 69.3699 22.3818C69.2205 22.6592 69.1459 23.0117 69.1459 23.4375Q69.1459 24.0459 69.3699 24.4619C69.5192 24.7393 69.7218 24.958 69.9779 25.1182C70.2339 25.2783 70.5325 25.3896 70.8739 25.4541ZM85.8917 33.9336C87.449 33.9336 88.665 33.6455 89.5397 33.0703C90.4143 32.4941 91.097 31.5342 91.5876 30.1904L98.4996 11.5977L93.7957 11.5977L90.1797 22.9258L90.1157 22.9258L86.3717 11.5977L81.5397 11.5977L87.3317 27.1182C87.4597 27.4375 87.5237 27.7793 87.5237 28.1416C87.5237 28.6328 87.3796 29.0811 87.0917 29.4863C86.8037 29.8916 86.3611 30.126 85.7637 30.1904C85.3157 30.2109 84.8677 30.2002 84.4197 30.1582C83.9717 30.1152 83.5343 30.0723 83.1077 30.0303L83.1077 33.7744C83.577 33.8164 84.041 33.8535 84.4996 33.8857C84.9584 33.918 85.4224 33.9336 85.8917 33.9336ZM104.59 28.5264C105.379 28.5264 106.104 28.4297 106.766 28.2383C107.427 28.0459 108.019 27.7793 108.542 27.4375C109.064 27.0967 109.507 26.707 109.87 26.2695C110.232 25.833 110.51 25.3682 110.702 24.8779L110.766 24.8779L110.766 25.7422C110.766 26.083 110.792 26.3975 110.846 26.6855C110.899 26.9736 111 27.2246 111.15 27.4375Q111.374 27.7578 111.806 27.9502C112.094 28.0781 112.483 28.1416 112.974 28.1416C113.315 28.1416 113.646 28.0996 113.966 28.0137L113.966 26.9902Q113.39 27.0859 113.07 27.0859Q112.654 27.0859 112.43 26.9102Q112.36 26.8555 112.303 26.79Q112.176 26.6445 112.109 26.4463C112.046 26.2539 112.008 26.041 111.998 25.8057C111.987 25.5713 111.982 25.3369 111.982 25.1016L111.982 15.5342C111.982 14.2754 111.528 13.2568 110.622 12.4775Q109.261 11.3096 106.286 11.3096Q103.31 11.3096 101.693 12.6699C100.616 13.5762 100.035 14.9365 99.9496 16.75L101.166 16.75C101.251 15.2783 101.747 14.1797 102.654 13.4541Q102.675 13.4365 102.697 13.4189Q104.049 12.3662 106.222 12.3662C107.054 12.3662 107.758 12.4512 108.333 12.6221C108.91 12.793 109.379 13.0273 109.742 13.3262C110.104 13.625 110.371 13.9658 110.542 14.3496Q110.577 14.4287 110.607 14.5098Q110.797 15.0176 110.797 15.5977C110.797 16.1738 110.766 16.6543 110.702 17.0381C110.638 17.4219 110.478 17.7363 110.222 17.9824C109.966 18.2275 109.587 18.4189 109.086 18.5576C108.584 18.6963 107.896 18.7979 107.021 18.8623L105.134 19.0215Q104.141 19.1182 103.07 19.3418C102.355 19.4912 101.704 19.7422 101.118 20.0938C100.531 20.4463 100.046 20.9258 99.6615 21.5342C99.2776 22.1416 99.0856 22.9258 99.0856 23.8857C99.0856 25.4648 99.5656 26.6328 100.526 27.3896C101.486 28.1475 102.84 28.5264 104.59 28.5264ZM101.453 26.5898C102.222 27.1768 103.278 27.4697 104.622 27.4697Q106.702 27.4697 107.917 26.7178C108.728 26.2168 109.347 25.6406 109.774 24.9902C110.2 24.3389 110.472 23.71 110.59 23.1016C110.707 22.4941 110.766 22.083 110.766 21.8701L110.766 18.7979C110.467 19.1602 110.014 19.4062 109.406 19.5342C108.797 19.6621 108.12 19.7578 107.374 19.8223L105.326 20.0137C104.728 20.0781 104.131 20.1689 103.534 20.2861Q102.638 20.4619 101.917 20.8779C101.438 21.1553 101.048 21.5342 100.75 22.0137C100.451 22.4941 100.302 23.1182 100.302 23.8857C100.302 25.1016 100.686 26.0029 101.453 26.5898ZM117.111 34.0303L117.111 24.7178L117.175 24.7178C117.666 26.0615 118.445 27.0322 119.511 27.6299C120.578 28.2275 121.794 28.5264 123.159 28.5264C124.418 28.5264 125.511 28.3125 126.439 27.8857C127.367 27.459 128.135 26.8672 128.743 26.1104C129.351 25.3525 129.805 24.4512 130.103 23.4062C130.402 22.3604 130.551 21.209 130.551 19.9502C130.551 18.7979 130.402 17.6992 130.103 16.6543C129.805 15.6084 129.351 14.6914 128.743 13.9023C128.135 13.1123 127.367 12.4834 126.439 12.0137C125.511 11.5449 124.418 11.3096 123.159 11.3096C122.263 11.3096 121.469 11.4482 120.775 11.7256C120.082 12.0029 119.49 12.3496 118.999 12.7656Q118.263 13.3896 117.815 14.126Q117.367 14.8623 117.175 15.4697L117.111 15.4697L117.111 11.6943L115.895 11.6943L115.895 34.0303L117.111 34.0303ZM120.263 26.8457Q121.431 27.4697 123.159 27.4697C124.226 27.4697 125.149 27.2676 125.927 26.8623C126.706 26.457 127.346 25.9131 127.847 25.2295C128.349 24.5469 128.722 23.7529 128.967 22.8457C129.213 21.9395 129.335 20.9736 129.335 19.9502C129.335 19.0117 129.218 18.0889 128.983 17.1816C128.749 16.2754 128.386 15.4648 127.895 14.75C127.405 14.0352 126.77 13.459 125.991 13.0215Q124.823 12.3662 123.159 12.3662C122.071 12.3662 121.143 12.5791 120.375 13.0059C119.607 13.4326 118.983 13.998 118.503 14.7021C118.023 15.4062 117.677 16.2109 117.463 17.1182Q117.143 18.4775 117.143 19.9502Q117.143 21.4219 117.431 22.7822Q117.719 24.1416 118.407 25.1816Q118.582 25.4463 118.787 25.6826Q119.392 26.3799 120.263 26.8457ZM134.657 8.58984L134.657 5.29395L133.441 5.29395L133.441 8.58984L134.657 8.58984ZM134.657 28.1416L134.657 11.6943L133.441 11.6943L133.441 28.1416L134.657 28.1416Z" clip-rule="evenodd" fill="#FBFCFE" fill-opacity="1.000000" fill-rule="evenodd"/>
	<circle id="Oval" r="3.000000" transform="matrix(0.707107 0.707107 -0.707107 0.707107 19.1421 5)" fill="#FBFCFE" fill-opacity="1.000000"/>
	<circle id="Oval" r="3.000000" transform="matrix(0.707107 0.707107 -0.707107 0.707107 19.1421 5)" stroke="#979797" stroke-opacity="0" stroke-width="0.000000"/>
	<circle id="Oval Copy 6" r="3.000000" transform="matrix(0.707107 0.707107 -0.707107 0.707107 26.2131 12.0703)" fill="#FBFCFE" fill-opacity="1.000000"/>
	<circle id="Oval Copy 6" r="3.000000" transform="matrix(0.707107 0.707107 -0.707107 0.707107 26.2131 12.0703)" stroke="#979797" stroke-opacity="0" stroke-width="0.000000"/>
	<circle id="Oval Copy 7" r="3.000000" transform="matrix(0.707107 0.707107 -0.707107 0.707107 33.2843 19.1416)" fill="#FBFCFE" fill-opacity="1.000000"/>
	<circle id="Oval Copy 7" r="3.000000" transform="matrix(0.707107 0.707107 -0.707107 0.707107 33.2843 19.1416)" stroke="#979797" stroke-opacity="0" stroke-width="0.000000"/>
	<circle id="Oval Copy 10" r="3.000000" transform="matrix(0.707107 0.707107 -0.707107 0.707107 12.071 12.0703)" fill="#FBFCFE" fill-opacity="1.000000"/>
	<circle id="Oval Copy 10" r="3.000000" transform="matrix(0.707107 0.707107 -0.707107 0.707107 12.071 12.0703)" stroke="#979797" stroke-opacity="0" stroke-width="0.000000"/>
	<g opacity="0.500000">
		<circle id="Oval Copy 9" r="3.000000" transform="matrix(0.707107 0.707107 -0.707107 0.707107 19.1421 19.1416)" fill="#FBFCFE" fill-opacity="1.000000"/>
		<circle id="Oval Copy 9" r="3.000000" transform="matrix(0.707107 0.707107 -0.707107 0.707107 19.1421 19.1416)" stroke="#979797" stroke-opacity="0" stroke-width="0.000000"/>
	</g>
	<g opacity="0.500000">
		<circle id="Oval Copy 8" r="3.000000" transform="matrix(0.707107 0.707107 -0.707107 0.707107 26.2131 26.2129)" fill="#FBFCFE" fill-opacity="1.000000"/>
		<circle id="Oval Copy 8" r="3.000000" transform="matrix(0.707107 0.707107 -0.707107 0.707107 26.2131 26.2129)" stroke="#979797" stroke-opacity="0" stroke-width="0.000000"/>
	</g>
	<circle id="Oval Copy 13" r="3.000000" transform="matrix(0.707107 0.707107 -0.707107 0.707107 5 19.1416)" fill="#FBFCFE" fill-opacity="1.000000"/>
	<circle id="Oval Copy 13" r="3.000000" transform="matrix(0.707107 0.707107 -0.707107 0.707107 5 19.1416)" stroke="#979797" stroke-opacity="0" stroke-width="0.000000"/>
	<g opacity="0.500000">
		<circle id="Oval Copy 12" r="3.000000" transform="matrix(0.707107 0.707107 -0.707107 0.707107 12.071 26.2129)" fill="#FBFCFE" fill-opacity="1.000000"/>
		<circle id="Oval Copy 12" r="3.000000" transform="matrix(0.707107 0.707107 -0.707107 0.707107 12.071 26.2129)" stroke="#979797" stroke-opacity="0" stroke-width="0.000000"/>
	</g>
	<g opacity="0.250000">
		<circle id="Oval Copy 11" r="3.000000" transform="matrix(0.707107 0.707107 -0.707107 0.707107 19.1421 33.2832)" fill="#FBFCFE" fill-opacity="1.000000"/>
		<circle id="Oval Copy 11" r="3.000000" transform="matrix(0.707107 0.707107 -0.707107 0.707107 19.1421 33.2832)" stroke="#979797" stroke-opacity="0" stroke-width="0.000000"/>
	</g>
</svg>
