<svg width="120.000000" height="24.000000" viewBox="0 0 120 24" fill="none" xmlns="http://www.w3.org/2000/svg" xmlns:xlink="http://www.w3.org/1999/xlink">
	<desc>
			Created with Pixso.
	</desc>
	<defs/>
	<path id="Path" d="M22.675 0L1.32495 0C0.593018 0 0 0.592773 0 1.3252L0 22.6758C0 23.4072 0.593018 24 1.32495 24L12.8199 24L12.8199 14.7061L9.69202 14.7061L9.69202 11.084L12.8199 11.084L12.8199 8.41309C12.8199 5.31299 14.713 3.625 17.479 3.625C18.804 3.625 19.942 3.72412 20.274 3.76807L20.274 7.00781L18.356 7.00879C16.8521 7.00879 16.561 7.72412 16.561 8.77197L16.561 11.085L20.1479 11.085L19.681 14.707L16.561 14.707L16.561 24L22.677 24C23.407 24 24 23.4072 24 22.6748L24 1.3252C24 0.592773 23.407 0 22.675 0Z" fill="#FBFCFE" fill-opacity="1.000000" fill-rule="nonzero"/>
	<path id="Path" d="M72 4.55713C71.1169 4.94922 70.168 5.21289 69.172 5.33203C70.189 4.72314 70.97 3.75781 71.337 2.60791C70.386 3.17188 69.332 3.58203 68.21 3.80322C67.313 2.84619 66.032 2.24805 64.616 2.24805C61.437 2.24805 59.101 5.21387 59.819 8.29297C55.728 8.08789 52.1 6.12793 49.671 3.14893C48.381 5.36182 49.002 8.25684 51.194 9.72314C50.3879 9.69727 49.6281 9.47607 48.965 9.10693C48.911 11.3882 50.546 13.522 52.9139 13.9971C52.2209 14.1851 51.462 14.229 50.6899 14.0811C51.316 16.0371 53.134 17.46 55.29 17.5C53.22 19.123 50.6121 19.8481 48 19.54C50.179 20.937 52.7679 21.752 55.548 21.752C64.6899 21.752 69.855 14.0312 69.543 7.10596C70.505 6.41113 71.34 5.54395 72 4.55713Z" fill="#FBFCFE" fill-opacity="1.000000" fill-rule="nonzero"/>
	<path id="Shape" d="M98.4 0L117.6 0C118.92 0 120 1.08008 120 2.3999L120 21.6001C120 22.9199 118.92 24 117.6 24L98.4 24C97.08 24 96 22.9199 96 21.6001L96 2.3999C96 1.08008 97.08 0 98.4 0ZM101.4 7.56006C100.2 7.56006 99.24 6.6001 99.24 5.3999C99.24 4.2002 100.2 3.24023 101.4 3.24023C102.6 3.24023 103.56 4.2002 103.56 5.3999C103.56 6.6001 102.6 7.56006 101.4 7.56006ZM112.8 20.3999L116.4 20.3999L116.4 13.5601C116.4 11.2798 114.48 9.35986 112.2 9.35986C111.12 9.35986 109.8 10.0801 109.2 11.04L109.2 9.6001L105.6 9.6001L105.6 20.3999L109.2 20.3999L109.2 14.04C109.2 13.0801 110.04 12.2402 111 12.2402C111.96 12.2402 112.8 13.0801 112.8 14.04L112.8 20.3999ZM99.6 20.3999L103.2 20.3999L103.2 9.6001L99.6 9.6001L99.6 20.3999Z" clip-rule="evenodd" fill="#FFFFFF" fill-opacity="1.000000" fill-rule="evenodd"/>
</svg>
