<svg width="120.000000" height="26.000000" viewBox="0 0 120 26" fill="none" xmlns="http://www.w3.org/2000/svg" xmlns:xlink="http://www.w3.org/1999/xlink">
	<desc>
			Created with Pixso.
	</desc>
	<defs/>
	<path id="Combined Shape" d="M12.3279 12.5806L0 12.5806L0 0L12.3279 0L12.3279 12.5806ZM13.1498 12.5806L25.4777 12.5806L25.4777 0L13.1498 0L13.1498 12.5806ZM119.17 9.67871L119.17 11.793L116.586 11.793L116.586 16.9976C116.586 17.6641 116.704 18.1411 116.936 18.4136C117.166 18.6841 117.535 18.8208 118.035 18.8208C118.168 18.8208 118.34 18.7915 118.545 18.7324C118.75 18.6748 118.924 18.5972 119.065 18.5024L119.17 18.4316L119.17 20.5659L119.136 20.5864C118.982 20.6763 118.721 20.7598 118.337 20.8438C117.96 20.9258 117.591 20.9673 117.241 20.9673C115.107 20.9673 114.025 19.7861 114.025 17.4541L114.025 11.793L110.195 11.793L110.195 20.7017L107.613 20.7017L107.613 11.793L105.814 11.793L105.814 9.67871L107.613 9.67871L107.613 8.15283C107.613 7.38623 107.779 6.69385 108.107 6.09375C108.436 5.49365 108.906 5.02148 109.504 4.69043C110.101 4.36035 110.786 4.19336 111.539 4.19336C112.137 4.19336 112.619 4.25879 112.974 4.38818L113.019 4.40527L113.019 6.63184L112.923 6.58887C112.543 6.4165 112.166 6.3291 111.801 6.3291C111.293 6.3291 110.895 6.49463 110.617 6.8208C110.337 7.15039 110.195 7.64502 110.195 8.29102L110.195 9.67871L114.025 9.67871L114.025 7.1875L114.073 7.17285L116.499 6.41846L116.586 6.39111L116.586 9.67871L119.17 9.67871ZM52.7479 5.41602C53.0487 5.12793 53.4149 4.98291 53.8348 4.98291C54.2764 4.98291 54.6497 5.13232 54.9438 5.42773C55.2383 5.72314 55.3877 6.08301 55.3877 6.49707C55.3877 6.91943 55.2341 7.27637 54.9314 7.55762C54.6305 7.8374 54.2618 7.97949 53.835 7.97949C53.4078 7.97949 53.0405 7.8374 52.7432 7.55713C52.444 7.27637 52.2926 6.91943 52.2926 6.49707C52.2926 6.06836 52.4458 5.70459 52.7479 5.41602ZM47.4701 20.7012L47.4701 8.86523L47.3861 8.86523L42.7661 20.7012L40.9199 20.7012L36.2267 8.86426L36.1427 8.86426L36.1427 20.7012L33.6963 20.7012L33.6963 5.32031L37.446 5.32031L41.8905 16.7451L46.4703 5.32031L50.0734 5.32031L50.0734 20.7012L47.4701 20.7012ZM59.5897 10.1709C60.4775 9.66797 61.5214 9.41309 62.6917 9.41309C63.1475 9.41309 63.6272 9.46484 64.1177 9.56836C64.6101 9.67188 65.0068 9.80859 65.2977 9.97412L65.3323 9.99414L65.3323 12.4971L65.2253 12.418C64.4524 11.8481 63.6353 11.5596 62.7969 11.5596C61.8167 11.5596 61.0116 11.8975 60.4043 12.5635C59.7952 13.231 59.4861 14.1362 59.4861 15.2539C59.4861 16.3643 59.7825 17.2466 60.3671 17.875C60.9503 18.5029 61.7538 18.8213 62.7548 18.8213C63.1152 18.8213 63.5262 18.7402 63.9772 18.5806C64.4291 18.4204 64.8492 18.1982 65.2251 17.9199L65.3323 17.8403L65.3323 20.2158L65.2988 20.2354C64.469 20.7212 63.434 20.9678 62.2217 20.9678C61.1829 20.9678 60.2446 20.7358 59.4329 20.2783C58.6199 19.8208 57.9777 19.1606 57.5239 18.3169C57.0704 17.4746 56.8411 16.5186 56.8411 15.4771C56.8411 14.2881 57.0776 13.2222 57.5437 12.3091C58.0118 11.3945 58.7 10.6748 59.5897 10.1709ZM75.2563 10.9961C76.2684 9.94531 77.689 9.41309 79.4777 9.41309C81.1619 9.41309 82.4977 9.92236 83.4479 10.9272C84.3975 11.9321 84.8788 13.3306 84.8788 15.0835C84.8788 16.8584 84.3658 18.2983 83.3539 19.3623C82.3416 20.4272 80.9492 20.9673 79.2161 20.9673C77.5525 20.9673 76.208 20.4546 75.2201 19.4429C74.2321 18.4316 73.7308 17.0439 73.7308 15.3174C73.7308 13.5005 74.2443 12.0464 75.2563 10.9961ZM87.2603 10.3525C88.0289 9.729 89.0352 9.41309 90.2515 9.41309C90.6238 9.41309 91.0518 9.45801 91.5236 9.54688C91.9976 9.63623 92.3877 9.74658 92.6836 9.87598L92.7241 9.89355L92.7241 12.2905L92.6187 12.2173C92.2979 11.9956 91.9136 11.8145 91.4762 11.6787C91.0383 11.5435 90.5981 11.4746 90.1678 11.4746C89.7042 11.4746 89.3345 11.5806 89.0688 11.7896C88.8053 11.9976 88.6769 12.2544 88.6769 12.5752C88.6769 12.9365 88.7809 13.2222 88.9857 13.4243C89.1982 13.6333 89.7134 13.9058 90.5173 14.2334C91.5265 14.647 92.25 15.1152 92.667 15.625C93.0867 16.1387 93.2996 16.7759 93.2996 17.519C93.2996 18.5488 92.9041 19.3911 92.1235 20.0225C91.3479 20.6499 90.2849 20.9678 88.965 20.9678C88.5372 20.9678 88.0448 20.9097 87.5028 20.7959C86.9598 20.6821 86.4991 20.5376 86.1338 20.3662L86.0945 20.3477L86.0945 17.8203L86.2017 17.8984C86.6432 18.2207 87.1307 18.4722 87.6473 18.6436C88.1677 18.8179 88.6427 18.9062 89.0591 18.9062C90.1818 18.9062 90.7274 18.5459 90.7274 17.8052C90.7274 17.5454 90.6736 17.3345 90.5676 17.1802C90.4584 17.0229 90.2651 16.8613 89.9928 16.7007C89.7141 16.5366 89.2755 16.3286 88.6874 16.0825C87.9877 15.7769 87.4597 15.4766 87.1177 15.1899C86.7729 14.9009 86.5135 14.5566 86.3459 14.1655C86.1793 13.7754 86.0946 13.3159 86.0946 12.7983C86.0946 11.8027 86.4869 10.98 87.2603 10.3525ZM95.9403 10.9961C96.953 9.94531 98.3733 9.41309 100.161 9.41309C101.846 9.41309 103.182 9.92236 104.132 10.9272C105.082 11.9321 105.563 13.3306 105.563 15.0835C105.563 16.8584 105.05 18.2983 104.038 19.3623C103.026 20.4272 101.633 20.9673 99.9 20.9673C98.2366 20.9673 96.892 20.4546 95.9039 19.4429C94.916 18.4316 94.4152 17.0435 94.4152 15.3174C94.4152 13.5005 94.9282 12.0464 95.9403 10.9961ZM69.8109 9.67871L69.8109 11.5874L69.838 11.5874C70.0763 10.9678 70.3881 10.4712 70.8193 10.1089C71.3107 9.69678 71.8844 9.4873 72.5254 9.4873C72.9507 9.4873 73.2867 9.53906 73.5243 9.6416L73.5656 9.65967L73.5656 12.2739L73.4584 12.1948C73.3403 12.1084 73.14 12.0259 72.8635 11.9502C72.5842 11.874 72.3263 11.8354 72.0966 11.8354C71.4186 11.8354 70.8634 12.1333 70.4468 12.7212C70.0248 13.3164 69.8109 14.104 69.8109 15.063L69.8109 20.7012L67.26 20.7012L67.26 9.67871L69.8109 9.67871ZM52.5332 9.67871L55.0841 9.67871L55.0841 20.7012L52.5332 20.7012L52.5332 9.67871ZM79.3625 18.8213C78.4254 18.8213 77.6862 18.5054 77.1655 17.8828C76.6414 17.2573 76.3763 16.3662 76.3763 15.2329C76.3763 14.064 76.6417 13.1494 77.1661 12.5127C77.6868 11.8804 78.4186 11.5596 79.3418 11.5596C80.2368 11.5596 80.9497 11.8662 81.4603 12.4712C81.9736 13.0791 82.2339 13.9868 82.2339 15.1689C82.2339 16.3662 81.9889 17.2856 81.5061 17.9009C81.0265 18.5112 80.3057 18.8213 79.3625 18.8213ZM100.047 18.8213C99.1095 18.8213 98.3705 18.5054 97.8496 17.8828C97.3257 17.2573 97.0602 16.3657 97.0602 15.2329C97.0602 14.064 97.3257 13.1494 97.8499 12.5127C98.371 11.8804 99.1029 11.5596 100.026 11.5596C100.921 11.5596 101.634 11.8662 102.145 12.4712C102.658 13.0791 102.918 13.9868 102.918 15.1689C102.918 16.3662 102.673 17.2856 102.19 17.9009C101.711 18.5112 100.99 18.8213 100.047 18.8213ZM12.3279 26L0 26L0 13.4194L12.3279 13.4194L12.3279 26ZM13.1498 26L25.4777 26L25.4777 13.4194L13.1498 13.4194L13.1498 26Z" clip-rule="evenodd" fill="#FFFFFF" fill-opacity="1.000000" fill-rule="evenodd"/>
</svg>
