<svg width="107.000000" height="15.000488" viewBox="0 0 107 15.0005" fill="none" xmlns="http://www.w3.org/2000/svg" xmlns:xlink="http://www.w3.org/1999/xlink">
	<desc>
			Created with Pixso.
	</desc>
	<defs/>
	<path id="Combined Shape" d="M36.941 2.86719L26.6536 2.86719C25.2057 2.55322 24.1388 1.25684 23.834 0L39.7225 0C39.4558 1.25684 38.3889 2.59229 36.941 2.86719ZM92.951 2.86719L103.239 2.86719C104.686 2.59229 105.715 1.25684 106.02 0L90.1696 0C90.4744 1.25684 91.5413 2.55322 92.951 2.86719ZM2.75696 2.87549C1.35962 2.56006 0.302124 1.2998 0 0.0395508L17.259 0L17.259 0.0395508C16.9569 1.2998 15.9373 2.48145 14.5022 2.87549L10.1968 2.87549L9.97021 2.9541L9.97021 14.2583L7.28882 14.2583L7.28882 2.9541L7.06226 2.87549L2.75696 2.87549ZM50.1244 2.82812L59.6499 2.82812C61.0978 2.396 62.2789 1.25684 62.5837 0.0390625L47.4954 0.0390625L47.4954 8.44482L59.8403 8.44482L59.8403 11.3906L50.1625 11.3906C48.6384 11.8228 47.3429 12.8833 46.6952 14.2583L62.5076 14.2583L62.5076 5.65625L50.1625 5.65625L50.1244 2.82812ZM84.8353 11.4692C84.5305 12.6475 83.8065 13.6689 82.473 14.2583L70.1279 14.2583L70.1279 0.0390625L72.8331 0.0390625L72.8331 11.4692L84.8353 11.4692ZM26.6536 8.48438L36.941 8.48438C38.3889 8.20898 39.4558 6.87354 39.7225 5.6167L23.834 5.6167C24.1388 6.87354 25.2057 8.16992 26.6536 8.48438ZM90.5887 14.2583L90.5887 5.65625L105.677 5.65625L105.677 14.2583L103.01 14.2583L103.01 8.52344L93.2559 8.52344L93.2559 14.2583L90.5887 14.2583ZM36.941 14.2583L26.6536 14.2583C25.2057 13.9829 24.1388 12.6475 23.834 11.3906L39.7225 11.3906C39.4558 12.6475 38.3889 13.9829 36.941 14.2583Z" clip-rule="evenodd" fill="#FFFFFF" fill-opacity="1.000000" fill-rule="evenodd"/>
</svg>
